<svg viewBox="0 0 16 16" xmlns="http://www.w3.org/2000/svg"><path d="m8.0349 0a8.041 8.041 0 0 0 -8 8 8 8 0 1 0 8-8" fill="#ffc72c"/><path d="m12.5516 6.9551-.4392-3.2978c-.1149-.5947-.5069-.8312-1.088-1.0744a9.9485 9.9485 0 0 0 -2.9937-.52 9.9418 9.9418 0 0 0 -2.987.52c-.5744.2432-.9731.48-1.0947 1.0744l-.4326 3.2978v4.5549h.8076v.7772a.5669.5669 0 0 0 .2973.4865c.0406.02.0811.0406.1149.0541a.6885.6885 0 0 0 .0946.027.5769.5769 0 0 0 .1555.02h.23a.6357.6357 0 0 0 .6691-.5879v-.7769h4.363v.7772a.5667.5667 0 0 0 .2973.4865c.0406.02.0811.0406.1149.0541a.6885.6885 0 0 0 .0946.027.5769.5769 0 0 0 .1555.02h.23a.6356.6356 0 0 0 .669-.5879v-.7769h.7425zm-6.6429-3.9395h4.2507c.2027 0 .3716.2309.3716.5078s-.1689.5078-.3716.5078h-4.2507c-.2027 0-.3717-.2308-.3717-.5078s.169-.5078.3717-.5078zm-1.0396 4.5544.3009-2.3339a.3143.3143 0 0 1 .322-.2671h5.1246a.3184.3184 0 0 1 .3223.2671l.344 2.3339v.1042a.3256.3256 0 0 1 -.3223.3258h-5.7806a.3318.3318 0 0 1 -.31-.3388.2326.2326 0 0 1 -.0009-.0912zm.6465 2.7535a.8285.8285 0 1 1 -.0371-1.6543.8311.8311 0 1 1 .0371 1.6543zm5.0154 0a.8285.8285 0 1 1 -.0371-1.6543.8311.8311 0 1 1 .0371 1.6543z" fill="#1c1e23"/></svg>