<svg viewBox="0 0 16 16" xmlns="http://www.w3.org/2000/svg"><path d="m8 0a8 8 0 1 0 8 8 8 8 0 0 0 -8-8" fill="#00843d"/><g fill="#fff"><path d="m6.083 11.5338a2.6388 2.6388 0 0 1 -1.0343.2162 3.6768 3.6768 0 0 1 -1.4805-.2863 3.1814 3.1814 0 0 1 -1.11-.7883 3.4872 3.4872 0 0 1 -.6922-1.1795 4.3267 4.3267 0 0 1 -.2412-1.4608 4.4738 4.4738 0 0 1 .2412-1.4908 3.592 3.592 0 0 1 .6922-1.2 3.1792 3.1792 0 0 1 1.11-.803 3.6208 3.6208 0 0 1 1.4805-.2913 3.4892 3.4892 0 0 1 1.07.1657 3.0366 3.0366 0 0 1 .9334.4868 2.6311 2.6311 0 0 1 1.0193 1.8775h-1.506a1.51 1.51 0 0 0 -.5422-.9035 1.5775 1.5775 0 0 0 -.9745-.3015 1.84 1.84 0 0 0 -.903.2059 1.7047 1.7047 0 0 0 -.603.5525 2.4262 2.4262 0 0 0 -.3363.7878 3.96 3.96 0 0 0 -.1049.9138 3.6827 3.6827 0 0 0 .1049.8784 2.3748 2.3748 0 0 0 .3363.7682 1.7218 1.7218 0 0 0 .603.5471 1.8343 1.8343 0 0 0 .903.2059 1.7106 1.7106 0 0 0 1.21-.3966 1.7244 1.7244 0 0 0 .4971-1.15h-1.5865v-1.174h3.0119v3.8752h-1.004l-.1608-.8133a2.356 2.356 0 0 1 -.9334.7579z"/><path d="m11.0324 4.4206v5.8435h3.4943v1.3251h-5.07v-7.1686z"/></g></svg>